ffmpeg started on 2025-05-13 at 10:36:53
Report written to "D:\Convert\FFMetrics\reports\ssim_report-6.txt"
Log level: 32
Command line:
ffmpeg -hide_banner -nostdin -i "G:\\\xc0\xed\xe8\xec\xe5\\\xce\xed\xe3\xee\xe8\xed\xe3\xe8\\!_35_\xcb\xe5\xf2\xee_2024\\DreamCast-1\\\xdf \xf1\xf2\xe0\xeb \xf1\xe0\xec\xfb\xec \xf1\xe8\xeb\xfc\xed\xfb\xec \xf1 \xef\xf0\xee\xe2\xe0\xeb\xfc\xed\xfb\xec \xed\xe0\xe2\xfb\xea\xee\xec \xab\xed\xe5\xed\xee\xf0\xec\xe0\xeb\xfc\xed\xee\xe5 \xf1\xee\xf1\xf2\xee\xff\xed\xe8\xe5\xbb, \xff \xf0\xe0\xe7\xf0\xf3\xf8\xf3 \xe2\xf1\xb8\\[DC] Hazurewaku - 02_Telegram_HEVC.mkv" -i "G:\\\xc0\xed\xe8\xec\xe5\\\xce\xed\xe3\xee\xe8\xed\xe3\xe8\\!_35_\xcb\xe5\xf2\xee_2024\\DreamCast-1\\\xdf \xf1\xf2\xe0\xeb \xf1\xe0\xec\xfb\xec \xf1\xe8\xeb\xfc\xed\xfb\xec \xf1 \xef\xf0\xee\xe2\xe0\xeb\xfc\xed\xfb\xec \xed\xe0\xe2\xfb\xea\xee\xec \xab\xed\xe5\xed\xee\xf0\xec\xe0\xeb\xfc\xed\xee\xe5 \xf1\xee\xf1\xf2\xee\xff\xed\xe8\xe5\xbb, \xff \xf0\xe0\xe7\xf0\xf3\xf8\xf3 \xe2\xf1\xb8\\[DC] Hazurewaku - 02_Telegram.mp4" -lavfi "[0:v]settb=AVTB,setpts=PTS-STARTPTS,format=pix_fmts=yuv420p10,fps=24000/1001,scale=1920:1080:flags=bicubic[main];[1:v]settb=AVTB,setpts=PTS-STARTPTS,format=pix_fmts=yuv420p,fps=24000/1001,scale=1920:1080:flags=bicubic[ref];[main][ref]ssim=eof_action=endall:stats_file='D\\:/Convert/FFMetrics/logs/ssim_logfile-6.txt'" -f null -
Input #0, matroska,webm, from 'G:\Аниме\Онгоинги\!_35_Лето_2024\DreamCast-1\Я стал самым сильным с провальным навыком «ненормальное состояние», я разрушу всё\[DC] Hazurewaku - 02_Telegram_HEVC.mkv':
  Metadata:
    COMPATIBLE_BRANDS: isomiso2avc1mp41
    MAJOR_BRAND     : isom
    MINOR_VERSION   : 512
    ENCODER         : Lavf61.7.100
  Duration: 00:24:17.67, start: -0.021000, bitrate: 1555 kb/s
  Stream #0:0: Video: hevc (Main 10), yuv420p10le(tv, bt709, progressive), 1920x1080 [SAR 1:1 DAR 16:9], 23.98 fps, 23.98 tbr, 1k tbn (default)
      Metadata:
        HANDLER_NAME    : VideoHandler
        VENDOR_ID       : [0][0][0][0]
        ENCODER         : Lavc61.19.100 libx265
        BPS             : 1360819
        DURATION        : 00:24:16.496708333
        NUMBER_OF_FRAMES: 34921
        NUMBER_OF_BYTES : 247753490
        _STATISTICS_WRITING_APP: mkvpropedit v66.0.0 ('Josie') 64-bit
        _STATISTICS_WRITING_DATE_UTC: 2025-05-11 14:27:23
        _STATISTICS_TAGS: BPS DURATION NUMBER_OF_FRAMES NUMBER_OF_BYTES
  Stream #0:1: Audio: aac (LC), 48000 Hz, stereo, fltp (default)
      Metadata:
        HANDLER_NAME    : SoundHandler
        VENDOR_ID       : [0][0][0][0]
        ENCODER         : Lavc61.19.100 aac
        BPS             : 191700
        DURATION        : 00:24:17.664000000
        NUMBER_OF_FRAMES: 68329
        NUMBER_OF_BYTES : 34929366
        _STATISTICS_WRITING_APP: mkvpropedit v66.0.0 ('Josie') 64-bit
        _STATISTICS_WRITING_DATE_UTC: 2025-05-11 14:27:23
        _STATISTICS_TAGS: BPS DURATION NUMBER_OF_FRAMES NUMBER_OF_BYTES
Input #1, mov,mp4,m4a,3gp,3g2,mj2, from 'G:\Аниме\Онгоинги\!_35_Лето_2024\DreamCast-1\Я стал самым сильным с провальным навыком «ненормальное состояние», я разрушу всё\[DC] Hazurewaku - 02_Telegram.mp4':
  Metadata:
    major_brand     : isom
    minor_version   : 512
    compatible_brands: isomiso2avc1mp41
    encoder         : Lavf61.1.100
  Duration: 00:24:17.63, start: 0.000000, bitrate: 3945 kb/s
  Stream #1:0[0x1](und): Video: h264 (High) (avc1 / 0x31637661), yuv420p(tv, bt709, progressive), 1920x1080 [SAR 1:1 DAR 16:9], 3800 kb/s, 23.98 fps, 23.98 tbr, 24k tbn (default)
      Metadata:
        handler_name    : VideoHandler
        vendor_id       : [0][0][0][0]
        encoder         : Lavc61.3.100 h264_qsv
  Stream #1:1[0x2](und): Audio: aac (HE-AACv2) (mp4a / 0x6134706D), 48000 Hz, stereo, fltp, 144 kb/s (default)
      Metadata:
        handler_name    : SoundHandler
        vendor_id       : [0][0][0][0]
Stream mapping:
  Stream #0:0 (hevc) -> settb:default
  Stream #1:0 (h264) -> settb:default
  ssim:default -> Stream #0:0 (wrapped_avframe)
  Stream #0:1 -> #0:1 (aac (native) -> pcm_s16le (native))
Output #0, null, to 'pipe:':
  Metadata:
    COMPATIBLE_BRANDS: isomiso2avc1mp41
    MAJOR_BRAND     : isom
    MINOR_VERSION   : 512
    encoder         : Lavf61.7.100
  Stream #0:0: Video: wrapped_avframe, yuv420p10le(tv, bt709, progressive), 1920x1080 [SAR 1:1 DAR 16:9], q=2-31, 200 kb/s, 23.98 fps, 23.98 tbn
      Metadata:
        encoder         : Lavc61.19.100 wrapped_avframe
  Stream #0:1: Audio: pcm_s16le, 48000 Hz, stereo, s16, 1536 kb/s (default)
      Metadata:
        HANDLER_NAME    : SoundHandler
        VENDOR_ID       : [0][0][0][0]
        _STATISTICS_TAGS: BPS DURATION NUMBER_OF_FRAMES NUMBER_OF_BYTES
        BPS             : 191700
        DURATION        : 00:24:17.664000000
        NUMBER_OF_FRAMES: 68329
        NUMBER_OF_BYTES : 34929366
        _STATISTICS_WRITING_APP: mkvpropedit v66.0.0 ('Josie') 64-bit
        _STATISTICS_WRITING_DATE_UTC: 2025-05-11 14:27:23
        encoder         : Lavc61.19.100 pcm_s16le
frame=  161 fps=0.0 q=-0.0 size=N/A time=00:00:06.71 bitrate=N/A speed=  13x    frame=  346 fps=332 q=-0.0 size=N/A time=00:00:14.43 bitrate=N/A speed=13.9x    frame=  556 fps=356 q=-0.0 size=N/A time=00:00:23.18 bitrate=N/A speed=14.8x    frame=  746 fps=360 q=-0.0 size=N/A time=00:00:31.11 bitrate=N/A speed=  15x    frame=  942 fps=363 q=-0.0 size=N/A time=00:00:39.28 bitrate=N/A speed=15.2x    frame= 1127 fps=363 q=-0.0 size=N/A time=00:00:47.00 bitrate=N/A speed=15.2x    frame= 1347 fps=372 q=-0.0 size=N/A time=00:00:56.18 bitrate=N/A speed=15.5x    frame= 1583 fps=383 q=-0.0 size=N/A time=00:01:06.02 bitrate=N/A speed=  16x    frame= 1742 fps=375 q=-0.0 size=N/A time=00:01:12.65 bitrate=N/A speed=15.6x    frame= 1905 fps=369 q=-0.0 size=N/A time=00:01:19.45 bitrate=N/A speed=15.4x    frame= 2081 fps=366 q=-0.0 size=N/A time=00:01:26.79 bitrate=N/A speed=15.3x    frame= 2286 fps=369 q=-0.0 size=N/A time=00:01:35.34 bitrate=N/A speed=15.4x    frame= 2472 fps=368 q=-0.0 size=N/A time=00:01:43.10 bitrate=N/A speed=15.4x    frame= 2651 fps=367 q=-0.0 size=N/A time=00:01:50.56 bitrate=N/A speed=15.3x    frame= 2872 fps=371 q=-0.0 size=N/A time=00:01:59.78 bitrate=N/A speed=15.5x    frame= 3102 fps=375 q=-0.0 size=N/A time=00:02:09.37 bitrate=N/A speed=15.7x    frame= 3290 fps=375 q=-0.0 size=N/A time=00:02:17.22 bitrate=N/A speed=15.6x    frame= 3449 fps=371 q=-0.0 size=N/A time=00:02:23.85 bitrate=N/A speed=15.5x    frame= 3639 fps=371 q=-0.0 size=N/A time=00:02:31.77 bitrate=N/A speed=15.5x    frame= 3830 fps=371 q=-0.0 size=N/A time=00:02:39.74 bitrate=N/A speed=15.5x    frame= 4024 fps=371 q=-0.0 size=N/A time=00:02:47.83 bitrate=N/A speed=15.5x    frame= 4244 fps=374 q=-0.0 size=N/A time=00:02:57.01 bitrate=N/A speed=15.6x    frame= 4436 fps=374 q=-0.0 size=N/A time=00:03:05.01 bitrate=N/A speed=15.6x    frame= 4618 fps=373 q=-0.0 size=N/A time=00:03:12.60 bitrate=N/A speed=15.5x    frame= 4824 fps=374 q=-0.0 size=N/A time=00:03:21.20 bitrate=N/A speed=15.6x    frame= 5018 fps=374 q=-0.0 size=N/A time=00:03:29.29 bitrate=N/A speed=15.6x    frame= 5266 fps=378 q=-0.0 size=N/A time=00:03:39.63 bitrate=N/A speed=15.8x    frame= 5473 fps=379 q=-0.0 size=N/A time=00:03:48.26 bitrate=N/A speed=15.8x    frame= 5678 fps=379 q=-0.0 size=N/A time=00:03:56.81 bitrate=N/A speed=15.8x    frame= 5889 fps=381 q=-0.0 size=N/A time=00:04:05.62 bitrate=N/A speed=15.9x    frame= 6145 fps=384 q=-0.0 size=N/A time=00:04:16.29 bitrate=N/A speed=  16x    frame= 6375 fps=386 q=-0.0 size=N/A time=00:04:25.89 bitrate=N/A speed=16.1x    frame= 6543 fps=384 q=-0.0 size=N/A time=00:04:32.89 bitrate=N/A speed=  16x    frame= 6756 fps=385 q=-0.0 size=N/A time=00:04:41.78 bitrate=N/A speed=16.1x    frame= 7001 fps=388 q=-0.0 size=N/A time=00:04:52.00 bitrate=N/A speed=16.2x    frame= 7195 fps=387 q=-0.0 size=N/A time=00:05:00.09 bitrate=N/A speed=16.2x    frame= 7393 fps=387 q=-0.0 size=N/A time=00:05:08.34 bitrate=N/A speed=16.2x    frame= 7614 fps=388 q=-0.0 size=N/A time=00:05:17.56 bitrate=N/A speed=16.2x    frame= 7865 fps=391 q=-0.0 size=N/A time=00:05:28.03 bitrate=N/A speed=16.3x    frame= 8075 fps=391 q=-0.0 size=N/A time=00:05:36.79 bitrate=N/A speed=16.3x    frame= 8335 fps=394 q=-0.0 size=N/A time=00:05:47.63 bitrate=N/A speed=16.4x    frame= 8583 fps=396 q=-0.0 size=N/A time=00:05:57.98 bitrate=N/A speed=16.5x    frame= 8829 fps=398 q=-0.0 size=N/A time=00:06:08.24 bitrate=N/A speed=16.6x    frame= 9073 fps=400 q=-0.0 size=N/A time=00:06:18.41 bitrate=N/A speed=16.7x    frame= 9329 fps=402 q=-0.0 size=N/A time=00:06:29.09 bitrate=N/A speed=16.8x    frame= 9589 fps=404 q=-0.0 size=N/A time=00:06:39.94 bitrate=N/A speed=16.8x    frame= 9848 fps=406 q=-0.0 size=N/A time=00:06:50.74 bitrate=N/A speed=16.9x    frame=10092 fps=407 q=-0.0 size=N/A time=00:07:00.92 bitrate=N/A speed=  17x    frame=10327 fps=409 q=-0.0 size=N/A time=00:07:10.72 bitrate=N/A speed=  17x    frame=10523 fps=408 q=-0.0 size=N/A time=00:07:18.89 bitrate=N/A speed=  17x    frame=10735 fps=408 q=-0.0 size=N/A time=00:07:27.73 bitrate=N/A speed=  17x    frame=10952 fps=408 q=-0.0 size=N/A time=00:07:36.78 bitrate=N/A speed=  17x    frame=11164 fps=408 q=-0.0 size=N/A time=00:07:45.63 bitrate=N/A speed=  17x    frame=11398 fps=409 q=-0.0 size=N/A time=00:07:55.39 bitrate=N/A speed=17.1x    frame=11632 fps=410 q=-0.0 size=N/A time=00:08:05.15 bitrate=N/A speed=17.1x    frame=11902 fps=412 q=-0.0 size=N/A time=00:08:16.41 bitrate=N/A speed=17.2x    frame=12161 fps=414 q=-0.0 size=N/A time=00:08:27.21 bitrate=N/A speed=17.3x    frame=12411 fps=415 q=-0.0 size=N/A time=00:08:37.64 bitrate=N/A speed=17.3x    frame=12642 fps=415 q=-0.0 size=N/A time=00:08:47.27 bitrate=N/A speed=17.3x    frame=12874 fps=416 q=-0.0 size=N/A time=00:08:56.95 bitrate=N/A speed=17.4x    frame=13127 fps=417 q=-0.0 size=N/A time=00:09:07.50 bitrate=N/A speed=17.4x    frame=13357 fps=418 q=-0.0 size=N/A time=00:09:17.09 bitrate=N/A speed=17.4x    frame=13547 fps=417 q=-0.0 size=N/A time=00:09:25.02 bitrate=N/A speed=17.4x    frame=13739 fps=416 q=-0.0 size=N/A time=00:09:33.03 bitrate=N/A speed=17.4x    frame=13979 fps=417 q=-0.0 size=N/A time=00:09:43.04 bitrate=N/A speed=17.4x    frame=14230 fps=418 q=-0.0 size=N/A time=00:09:53.50 bitrate=N/A speed=17.4x    frame=14468 fps=418 q=-0.0 size=N/A time=00:10:03.43 bitrate=N/A speed=17.5x    frame=14679 fps=418 q=-0.0 size=N/A time=00:10:12.23 bitrate=N/A speed=17.5x    frame=14928 fps=419 q=-0.0 size=N/A time=00:10:22.62 bitrate=N/A speed=17.5x    frame=15156 fps=420 q=-0.0 size=N/A time=00:10:32.13 bitrate=N/A speed=17.5x    frame=15383 fps=420 q=-0.0 size=N/A time=00:10:41.59 bitrate=N/A speed=17.5x    frame=15598 fps=420 q=-0.0 size=N/A time=00:10:50.56 bitrate=N/A speed=17.5x    frame=15832 fps=420 q=-0.0 size=N/A time=00:11:00.32 bitrate=N/A speed=17.5x    frame=16076 fps=421 q=-0.0 size=N/A time=00:11:10.50 bitrate=N/A speed=17.6x    frame=16323 fps=422 q=-0.0 size=N/A time=00:11:20.80 bitrate=N/A speed=17.6x    frame=16572 fps=423 q=-0.0 size=N/A time=00:11:31.19 bitrate=N/A speed=17.6x    frame=16827 fps=424 q=-0.0 size=N/A time=00:11:41.82 bitrate=N/A speed=17.7x    frame=17073 fps=424 q=-0.0 size=N/A time=00:11:52.08 bitrate=N/A speed=17.7x    frame=17323 fps=425 q=-0.0 size=N/A time=00:12:02.51 bitrate=N/A speed=17.7x    frame=17580 fps=426 q=-0.0 size=N/A time=00:12:13.23 bitrate=N/A speed=17.8x    frame=17832 fps=427 q=-0.0 size=N/A time=00:12:23.74 bitrate=N/A speed=17.8x    frame=18070 fps=427 q=-0.0 size=N/A time=00:12:33.66 bitrate=N/A speed=17.8x    frame=18318 fps=428 q=-0.0 size=N/A time=00:12:44.01 bitrate=N/A speed=17.8x    frame=18564 fps=428 q=-0.0 size=N/A time=00:12:54.27 bitrate=N/A speed=17.9x    frame=18796 fps=429 q=-0.0 size=N/A time=00:13:03.94 bitrate=N/A speed=17.9x    frame=19026 fps=429 q=-0.0 size=N/A time=00:13:13.54 bitrate=N/A speed=17.9x    frame=19236 fps=429 q=-0.0 size=N/A time=00:13:22.30 bitrate=N/A speed=17.9x    frame=19460 fps=429 q=-0.0 size=N/A time=00:13:31.64 bitrate=N/A speed=17.9x    frame=19649 fps=428 q=-0.0 size=N/A time=00:13:39.52 bitrate=N/A speed=17.9x    frame=19867 fps=428 q=-0.0 size=N/A time=00:13:48.61 bitrate=N/A speed=17.8x    frame=20091 fps=428 q=-0.0 size=N/A time=00:13:57.96 bitrate=N/A speed=17.8x    frame=20302 fps=428 q=-0.0 size=N/A time=00:14:06.76 bitrate=N/A speed=17.8x    frame=20517 fps=428 q=-0.0 size=N/A time=00:14:15.72 bitrate=N/A speed=17.8x    frame=20747 fps=428 q=-0.0 size=N/A time=00:14:25.32 bitrate=N/A speed=17.8x    frame=20958 fps=428 q=-0.0 size=N/A time=00:14:34.12 bitrate=N/A speed=17.8x    frame=21191 fps=428 q=-0.0 size=N/A time=00:14:43.84 bitrate=N/A speed=17.8x    frame=21417 fps=428 q=-0.0 size=N/A time=00:14:53.26 bitrate=N/A speed=17.9x    frame=21662 fps=428 q=-0.0 size=N/A time=00:15:03.48 bitrate=N/A speed=17.9x    frame=21881 fps=428 q=-0.0 size=N/A time=00:15:12.62 bitrate=N/A speed=17.9x    frame=22109 fps=429 q=-0.0 size=N/A time=00:15:22.12 bitrate=N/A speed=17.9x    frame=22329 fps=429 q=-0.0 size=N/A time=00:15:31.30 bitrate=N/A speed=17.9x    frame=22541 fps=428 q=-0.0 size=N/A time=00:15:40.14 bitrate=N/A speed=17.9x    frame=22755 fps=428 q=-0.0 size=N/A time=00:15:49.07 bitrate=N/A speed=17.9x    frame=22960 fps=428 q=-0.0 size=N/A time=00:15:57.62 bitrate=N/A speed=17.9x    frame=23147 fps=427 q=-0.0 size=N/A time=00:16:05.42 bitrate=N/A speed=17.8x    frame=23357 fps=427 q=-0.0 size=N/A time=00:16:14.18 bitrate=N/A speed=17.8x    frame=23563 fps=427 q=-0.0 size=N/A time=00:16:22.77 bitrate=N/A speed=17.8x    frame=23790 fps=427 q=-0.0 size=N/A time=00:16:32.24 bitrate=N/A speed=17.8x    frame=24012 fps=427 q=-0.0 size=N/A time=00:16:41.50 bitrate=N/A speed=17.8x    frame=24217 fps=427 q=-0.0 size=N/A time=00:16:50.05 bitrate=N/A speed=17.8x    frame=24423 fps=427 q=-0.0 size=N/A time=00:16:58.64 bitrate=N/A speed=17.8x    frame=24643 fps=426 q=-0.0 size=N/A time=00:17:07.81 bitrate=N/A speed=17.8x    frame=24871 fps=427 q=-0.0 size=N/A time=00:17:17.32 bitrate=N/A speed=17.8x    frame=25110 fps=427 q=-0.0 size=N/A time=00:17:27.29 bitrate=N/A speed=17.8x    frame=25346 fps=427 q=-0.0 size=N/A time=00:17:37.13 bitrate=N/A speed=17.8x    frame=25595 fps=428 q=-0.0 size=N/A time=00:17:47.52 bitrate=N/A speed=17.8x    frame=25818 fps=428 q=-0.0 size=N/A time=00:17:56.82 bitrate=N/A speed=17.8x    frame=25979 fps=427 q=-0.0 size=N/A time=00:18:03.54 bitrate=N/A speed=17.8x    frame=26151 fps=426 q=-0.0 size=N/A time=00:18:10.71 bitrate=N/A speed=17.8x    frame=26355 fps=426 q=-0.0 size=N/A time=00:18:19.22 bitrate=N/A speed=17.8x    frame=26532 fps=425 q=-0.0 size=N/A time=00:18:26.60 bitrate=N/A speed=17.7x    frame=26707 fps=424 q=-0.0 size=N/A time=00:18:33.90 bitrate=N/A speed=17.7x    frame=26913 fps=424 q=-0.0 size=N/A time=00:18:42.49 bitrate=N/A speed=17.7x    frame=27088 fps=424 q=-0.0 size=N/A time=00:18:49.79 bitrate=N/A speed=17.7x    frame=27294 fps=423 q=-0.0 size=N/A time=00:18:58.38 bitrate=N/A speed=17.7x    frame=27495 fps=423 q=-0.0 size=N/A time=00:19:06.77 bitrate=N/A speed=17.6x    frame=27725 fps=423 q=-0.0 size=N/A time=00:19:16.36 bitrate=N/A speed=17.6x    frame=27958 fps=423 q=-0.0 size=N/A time=00:19:26.08 bitrate=N/A speed=17.7x    frame=28149 fps=423 q=-0.0 size=N/A time=00:19:34.04 bitrate=N/A speed=17.6x    frame=28362 fps=423 q=-0.0 size=N/A time=00:19:42.93 bitrate=N/A speed=17.6x    frame=28608 fps=423 q=-0.0 size=N/A time=00:19:53.19 bitrate=N/A speed=17.7x    frame=28829 fps=423 q=-0.0 size=N/A time=00:20:02.40 bitrate=N/A speed=17.7x    frame=29038 fps=423 q=-0.0 size=N/A time=00:20:11.12 bitrate=N/A speed=17.6x    frame=29244 fps=423 q=-0.0 size=N/A time=00:20:19.71 bitrate=N/A speed=17.6x    frame=29462 fps=423 q=-0.0 size=N/A time=00:20:28.81 bitrate=N/A speed=17.6x    frame=29650 fps=423 q=-0.0 size=N/A time=00:20:36.65 bitrate=N/A speed=17.6x    frame=29915 fps=423 q=-0.0 size=N/A time=00:20:47.70 bitrate=N/A speed=17.7x    frame=30137 fps=423 q=-0.0 size=N/A time=00:20:56.96 bitrate=N/A speed=17.7x    frame=30378 fps=424 q=-0.0 size=N/A time=00:21:07.01 bitrate=N/A speed=17.7x    frame=30601 fps=424 q=-0.0 size=N/A time=00:21:16.31 bitrate=N/A speed=17.7x    frame=30814 fps=424 q=-0.0 size=N/A time=00:21:25.20 bitrate=N/A speed=17.7x    frame=30997 fps=423 q=-0.0 size=N/A time=00:21:32.83 bitrate=N/A speed=17.6x    frame=31252 fps=424 q=-0.0 size=N/A time=00:21:43.46 bitrate=N/A speed=17.7x    frame=31508 fps=424 q=-0.0 size=N/A time=00:21:54.14 bitrate=N/A speed=17.7x    frame=31754 fps=424 q=-0.0 size=N/A time=00:22:04.40 bitrate=N/A speed=17.7x    frame=32005 fps=425 q=-0.0 size=N/A time=00:22:14.87 bitrate=N/A speed=17.7x    frame=32252 fps=425 q=-0.0 size=N/A time=00:22:25.17 bitrate=N/A speed=17.7x    frame=32475 fps=425 q=-0.0 size=N/A time=00:22:34.47 bitrate=N/A speed=17.7x    frame=32706 fps=425 q=-0.0 size=N/A time=00:22:44.11 bitrate=N/A speed=17.7x    frame=32900 fps=425 q=-0.0 size=N/A time=00:22:52.20 bitrate=N/A speed=17.7x    frame=33089 fps=425 q=-0.0 size=N/A time=00:23:00.08 bitrate=N/A speed=17.7x    frame=33299 fps=425 q=-0.0 size=N/A time=00:23:08.84 bitrate=N/A speed=17.7x    frame=33512 fps=425 q=-0.0 size=N/A time=00:23:17.72 bitrate=N/A speed=17.7x    frame=33681 fps=424 q=-0.0 size=N/A time=00:23:24.77 bitrate=N/A speed=17.7x    frame=33849 fps=423 q=-0.0 size=N/A time=00:23:31.78 bitrate=N/A speed=17.7x    frame=34038 fps=423 q=-0.0 size=N/A time=00:23:39.66 bitrate=N/A speed=17.6x    frame=34224 fps=423 q=-0.0 size=N/A time=00:23:47.42 bitrate=N/A speed=17.6x    frame=34389 fps=422 q=-0.0 size=N/A time=00:23:54.30 bitrate=N/A speed=17.6x    frame=34560 fps=421 q=-0.0 size=N/A time=00:24:01.44 bitrate=N/A speed=17.6x    frame=34753 fps=421 q=-0.0 size=N/A time=00:24:09.48 bitrate=N/A speed=17.6x    [Parsed_ssim_10 @ 000002a5fa5aa440] SSIM Y:0.992355 (21.166207) U:0.994165 (22.339783) V:0.993975 (22.200378) All:0.992927 (21.503765)
[out#0/null @ 000002a5fa566140] video:15005KiB audio:273316KiB subtitle:0KiB other streams:0KiB global headers:0KiB muxing overhead: unknown
frame=34921 fps=421 q=-0.0 Lsize=N/A time=00:24:16.49 bitrate=N/A speed=17.6x    
